<svg width="464" height="373" viewBox="0 0 464 373" fill="none" xmlns="http://www.w3.org/2000/svg">
<g clip-path="url(#clip0_228_330)">
<mask id="mask0_228_330" style="mask-type:alpha" maskUnits="userSpaceOnUse" x="0" y="0" width="464" height="373">
<rect width="464" height="373" fill="#1D2123"/>
</mask>
<g mask="url(#mask0_228_330)">
<path d="M573.712 -292C564.113 -243.438 551.544 -195.247 532.035 -149.751C525.711 -135.001 518.606 -120.459 508.98 -107.618C489.351 -81.4315 460.565 -63.9141 436.511 -41.7217C405.961 -13.5377 383.069 22.771 370.388 62.3281C360.847 92.0931 353.429 128.956 334.816 154.669C317.907 178.027 277.753 180.804 252.639 191.171C226.916 201.79 204.782 220.419 189.125 243.346C180.924 255.357 174.462 268.581 170.189 282.49C166.104 295.791 167.141 312.055 150.003 315.313C144.339 316.39 138.515 315.193 132.749 315.204C112.708 315.244 94.077 332.017 91.9409 351.943M573.039 -290.112C564.366 -241.935 552.298 -193.861 532.921 -148.591C526.477 -133.51 519.027 -118.858 509.398 -105.622C497.762 -89.6694 482.885 -76.7244 467.61 -64.095C457.183 -55.4731 446.569 -46.9992 436.67 -37.8181C417.115 -19.6795 400.363 1.44645 387.081 24.3223C379.315 37.6987 372.739 51.6736 367.495 66.0336C363.795 76.105 360.329 86.9657 356.581 97.9077C351.294 113.282 345.441 128.816 337.656 142.73C334.866 147.729 331.828 152.519 328.476 156.998C314.61 175.504 287.006 181.965 263.869 189.499C257.657 191.509 251.766 193.595 246.543 196.015C225.022 205.909 206.278 221.506 191.952 240.486C189.484 243.753 187.147 247.122 184.947 250.582C177.101 262.921 170.948 276.444 166.764 290.603C164.287 298.989 163.658 308.466 159.493 315.357C156.93 319.6 153.026 322.832 146.558 324.264C140.907 325.514 135.086 324.587 129.306 324.804C109.23 325.542 90.3869 342.385 87.8185 362.507M572.365 -288.225C564.619 -240.432 553.051 -192.476 533.804 -147.431C527.24 -132.016 519.446 -117.256 509.813 -103.629C498.207 -87.2881 483.355 -73.8983 468.023 -60.882C457.555 -51.9929 446.861 -43.2772 436.822 -33.9147C416.989 -15.4245 399.716 5.80695 385.689 28.53C377.488 41.8148 370.406 55.6124 364.596 69.7389C360.475 79.6547 356.572 90.3096 352.391 101.028C346.48 116.093 340.004 131.288 331.736 145.101C328.782 150.061 325.602 154.835 322.128 159.331C307.725 177.932 280.284 185.23 257.476 193.665C251.358 195.902 245.577 198.235 240.443 200.865C219.38 211.656 201.189 227.898 187.463 247.444C185.1 250.805 182.868 254.27 180.766 257.822C173.273 270.49 167.43 284.311 163.337 298.72C160.913 307.258 160.22 316.842 156.021 323.906C153.433 328.259 149.514 331.596 143.112 333.218C137.472 334.646 131.656 333.986 125.862 334.408C105.753 335.842 86.6938 352.759 83.6945 373.072M571.692 -286.34C564.87 -238.93 553.806 -191.09 534.69 -146.273C528.004 -130.527 519.867 -115.658 510.232 -101.636C498.657 -84.9067 483.83 -71.0735 468.441 -57.6702C457.933 -48.5125 447.161 -39.5564 436.978 -30.014C416.868 -11.1723 399.072 10.1647 384.301 32.7321C375.664 45.9281 368.114 59.5642 361.698 73.4401C357.181 83.2117 352.813 93.6494 348.204 104.142C341.667 118.899 334.571 133.753 325.819 147.465C322.702 152.382 319.377 157.145 315.787 161.656C300.845 180.352 273.592 188.546 251.087 197.822C245.068 200.302 239.387 202.857 234.346 205.704C213.724 217.355 196.102 234.283 182.979 254.392C180.719 257.851 178.59 261.408 176.589 265.052C169.452 278.048 163.918 292.167 159.916 306.826C157.545 315.517 156.79 325.206 152.555 332.443C149.943 336.908 146.011 340.352 139.668 342.161C134.041 343.768 128.229 343.373 122.42 344C102.275 346.132 83.0025 363.117 79.5722 383.628M571.019 -284.452C565.123 -237.427 554.56 -189.703 535.578 -145.112C528.772 -129.032 520.318 -114.038 510.651 -99.6411C499.139 -82.5012 484.305 -68.2472 468.861 -54.4542C458.313 -45.0307 447.461 -35.8313 437.137 -26.109C416.75 -6.91431 398.434 14.5282 382.917 36.9414C373.844 50.0458 365.797 63.5131 358.806 77.1471C353.874 86.7687 349.062 96.9935 344.022 107.265C336.861 121.713 329.142 136.228 319.906 149.838C316.625 154.715 313.157 159.464 309.448 163.99C293.968 182.78 266.888 191.827 244.7 201.987C238.777 204.699 233.2 207.485 228.253 210.551C208.074 223.058 191.019 240.673 178.497 261.348C176.339 264.902 174.313 268.554 172.413 272.289C165.631 285.612 160.406 300.031 156.494 314.939C154.176 323.782 153.357 333.575 149.087 340.988C146.452 345.564 142.505 349.117 136.226 351.112C130.61 352.898 124.803 352.768 118.981 353.6C98.8002 356.43 79.3137 373.487 75.4526 394.189M570.346 -282.567C565.378 -235.926 555.316 -188.318 536.462 -143.953C529.535 -127.541 520.745 -112.434 511.067 -97.6489C499.592 -80.1171 484.777 -65.4226 469.276 -51.2426C458.688 -41.5505 447.757 -32.1108 437.29 -22.2085C416.627 -2.66226 397.788 18.8845 381.527 41.1449C372.019 54.1604 363.473 67.4547 355.909 80.8482C350.561 90.3171 345.33 100.346 339.834 110.381C332.081 124.539 323.676 138.671 313.988 152.203C310.532 157.031 306.932 161.773 303.102 166.316C287.084 185.202 260.177 195.097 238.307 206.147C232.481 209.09 227.007 212.11 222.153 215.394C202.415 228.752 185.93 247.058 174.009 268.3C171.956 271.95 170.032 275.695 168.23 279.524C161.805 293.177 156.888 307.895 153.066 323.052C150.801 332.048 149.919 341.947 145.613 349.533C142.955 354.22 138.993 357.881 132.778 360.062C127.173 362.028 121.373 362.163 115.535 363.199C95.3211 366.726 75.6207 383.855 71.3272 404.753M569.673 -280.679C565.631 -234.422 556.071 -186.932 537.348 -142.793C530.302 -126.049 521.171 -110.831 511.486 -95.6538C500.048 -77.7301 485.25 -62.5963 469.694 -48.028C459.064 -38.0687 448.055 -28.3858 437.448 -18.305C416.507 1.59419 397.148 23.2464 380.14 45.3512C370.196 58.2752 361.15 71.4007 353.014 84.5523C347.25 93.8698 341.578 103.69 335.649 113.498C327.275 127.353 318.24 141.136 308.072 154.571C304.452 159.356 300.711 164.088 296.76 168.644C280.205 187.624 253.472 198.368 231.917 210.307C226.188 213.481 220.818 216.73 216.057 220.238C196.762 234.446 180.844 253.445 169.523 275.253C167.573 278.998 165.753 282.837 164.051 286.757C157.981 300.737 153.373 315.754 149.641 331.162C147.429 340.31 146.484 350.315 142.142 358.074C139.462 362.871 135.483 366.647 129.332 369.011C123.737 371.16 117.942 371.555 112.092 372.795C91.8421 377.019 71.9265 394.22 67.2049 415.311M568.999 -278.792C565.881 -232.919 556.823 -185.547 538.231 -141.633C531.064 -124.557 521.593 -109.229 511.9 -93.6601C500.498 -75.3458 485.72 -59.7702 470.107 -44.8151C459.438 -34.5871 448.35 -24.6637 437.6 -14.403C416.382 5.84778 396.499 27.6055 378.748 49.5561C368.371 62.3899 358.823 75.3452 350.114 88.2562C343.931 97.4238 337.82 107.035 331.459 116.618C322.462 130.167 312.8 143.603 302.152 156.94C298.368 161.681 294.483 166.402 290.413 170.974C273.318 190.05 246.761 201.639 225.523 214.468C219.89 217.871 214.624 221.353 209.955 225.082C191.102 240.135 175.752 259.834 165.034 282.207C163.186 286.048 161.471 289.983 159.868 293.992C154.153 308.3 149.854 323.616 146.211 339.274C144.052 348.574 143.044 358.686 138.667 366.617C135.963 371.524 131.97 375.415 125.881 377.959C120.296 380.292 114.508 380.948 108.644 382.392C88.3588 387.311 68.2307 404.585 63.0754 425.871M568.326 -276.907C566.136 -231.418 557.579 -184.163 539.119 -140.474C531.831 -123.064 522.019 -107.628 512.32 -91.6664C500.952 -72.963 486.195 -56.9441 470.528 -41.6006C459.819 -31.1067 448.652 -20.9402 437.759 -10.4982C416.264 10.1055 395.859 31.9674 377.364 53.7651C366.55 66.5087 356.499 79.2925 347.221 91.963C340.619 100.979 334.071 110.382 327.278 119.738C317.659 132.984 307.37 146.071 296.24 159.31C292.289 164.01 288.264 168.717 284.074 173.305C266.442 192.475 240.058 204.907 219.136 218.631C213.598 222.263 208.437 225.975 203.861 229.925C185.447 245.822 170.669 266.221 160.554 289.159C158.811 293.096 157.198 297.124 155.693 301.227C150.334 315.864 146.343 331.479 142.792 347.387C140.686 356.839 139.614 367.055 135.202 375.162C132.474 380.18 128.466 384.188 122.441 386.909C116.867 389.427 111.084 390.341 105.207 391.992C84.8865 397.609 64.5446 414.955 58.9598 436.433M567.653 -275.019C566.389 -229.915 558.334 -182.776 540.003 -139.312C532.595 -121.571 522.443 -106.024 512.735 -89.6699C501.401 -70.5774 486.665 -54.1151 470.942 -38.3846C460.192 -27.6222 448.944 -17.2153 437.912 -6.59468C416.141 14.3606 395.214 36.3294 375.973 57.9701C364.725 70.6235 354.171 83.2356 344.324 95.6671C337.302 104.532 330.315 113.727 323.089 122.856C312.847 135.797 301.933 148.537 290.32 161.679C286.206 166.336 282.037 171.032 277.727 175.635C259.556 194.901 233.345 208.175 212.742 222.795C207.301 226.655 202.242 230.6 197.76 234.772C179.785 251.507 165.579 272.611 156.063 296.115C154.422 300.147 152.913 304.269 151.51 308.464C146.506 323.428 142.826 339.343 139.362 355.501C137.311 365.105 136.174 375.428 131.727 383.708C128.976 388.838 124.953 392.962 118.991 395.862C113.426 398.567 107.651 399.739 101.758 401.593C81.4033 407.907 60.8447 425.324 54.829 446.997M566.98 -273.133C566.642 -228.414 559.089 -181.391 540.889 -138.154C533.361 -120.08 522.868 -104.425 513.154 -87.6775C501.853 -68.1945 487.141 -51.2916 471.358 -35.1714C460.568 -24.1418 449.242 -13.4931 438.067 -2.69116C416.019 18.6171 394.569 40.6901 374.584 62.178C362.899 74.7411 351.841 87.1802 341.428 99.3726C333.985 108.085 326.561 117.074 318.903 125.978C308.036 138.614 296.499 151.007 284.406 164.051C280.127 168.665 275.815 173.35 271.386 177.967C252.678 197.327 226.64 211.44 206.354 226.959C201.009 231.049 196.053 235.223 191.664 239.619C174.126 257.19 160.493 279.001 151.579 303.071C150.042 307.201 148.635 311.416 147.333 315.702C142.684 330.994 139.312 347.209 135.94 363.614C133.941 373.37 132.742 383.799 128.259 392.253C125.485 397.494 121.448 401.737 115.549 404.812C109.995 407.706 104.228 409.145 98.3182 411.193C77.9434 418.248 57.1575 435.693 50.7094 457.561M566.306 -271.247C566.893 -226.91 559.841 -180.005 541.774 -136.996C534.124 -118.589 523.289 -102.824 513.57 -85.6853C502.302 -65.8146 487.612 -48.4669 471.774 -31.9598C460.943 -20.6616 449.539 -9.77249 438.22 1.20935C415.895 22.8692 393.922 45.0477 373.194 66.3814C361.075 78.8544 349.509 91.1218 338.53 103.074C330.667 111.633 322.804 120.415 314.716 129.092C303.224 141.422 291.065 153.471 278.487 166.416C274.045 170.989 269.591 175.659 265.04 180.294C245.794 199.749 219.926 214.7 199.96 231.118C194.71 235.434 189.857 239.839 185.563 244.461C168.461 262.865 155.403 285.388 147.089 310.023C145.656 314.247 144.355 318.557 143.15 322.935C138.856 338.555 135.793 355.069 132.512 371.724C130.566 381.633 129.302 392.167 124.786 400.794C121.989 406.145 117.938 410.511 112.099 413.759C106.557 416.843 100.796 418.536 94.8703 420.787C74.4615 428.538 53.4603 446.057 46.5827 468.117M565.633 -269.359C567.147 -225.407 560.597 -178.617 542.66 -135.833C534.891 -117.094 523.713 -101.221 513.989 -83.6874C502.753 -63.429 488.085 -45.6379 472.191 -28.7424C461.321 -17.1784 449.838 -6.04606 438.378 5.11571C415.776 27.1285 393.282 49.4125 371.809 70.592C359.253 82.9748 347.182 95.0691 335.635 106.783C327.351 115.19 319.05 123.765 310.531 132.217C298.413 144.241 285.632 155.944 272.572 168.789C267.965 173.319 263.367 177.978 258.7 182.628C238.916 202.178 213.218 217.965 193.574 235.285C188.42 239.828 183.669 244.463 179.471 249.31C162.802 268.545 150.321 291.779 142.61 316.981C141.28 321.302 140.081 325.705 138.976 330.176C135.039 346.125 132.283 362.936 129.092 379.843C127.2 389.904 125.874 400.543 121.32 409.345C118.5 414.805 114.434 419.295 108.659 422.716C103.129 425.991 97.3722 427.938 91.4321 430.394C70.9908 438.843 49.7729 456.431 42.463 478.687M564.96 -267.474C567.399 -223.906 561.266 -177.27 543.546 -134.675C535.618 -115.62 524.133 -99.6225 514.406 -81.6964C503.201 -61.0503 488.558 -42.8145 472.609 -25.5307C461.699 -13.698 450.135 -2.32393 438.534 9.01638C415.655 31.3807 392.639 53.7689 370.42 74.7941C357.43 87.0867 344.849 99.0051 332.739 110.483C324.032 118.735 315.292 127.103 306.346 135.331C293.602 147.05 280.201 158.407 266.656 171.154C261.887 175.642 257.144 180.289 252.357 184.955C232.034 204.6 206.506 221.22 187.183 239.443C182.125 244.213 177.476 249.079 173.372 254.151C157.135 274.216 145.233 298.163 138.123 323.929C136.895 328.346 135.8 332.843 134.796 337.406C131.214 353.682 128.767 370.793 125.666 387.949C123.826 398.162 122.436 408.908 117.848 417.882C115.004 423.454 110.927 428.066 105.212 431.659C99.6952 435.127 93.9427 437.326 87.9897 439.985C67.5158 449.132 46.0814 466.792 38.3419 489.241M564.286 -265.587C567.653 -222.403 562.019 -175.885 544.429 -133.515C536.38 -114.128 524.553 -98.0232 514.821 -79.7027C503.646 -58.6689 489.028 -39.9883 473.023 -22.3176C462.071 -10.2177 450.431 1.39823 438.687 12.9199C415.529 35.6357 391.994 58.1309 369.029 79.0019C355.602 91.2043 342.513 102.948 329.84 114.189C320.708 122.287 311.534 130.448 302.156 138.451C288.785 149.864 274.766 160.878 260.735 173.525C255.802 177.972 250.918 182.605 246.01 187.285C225.149 207.025 199.789 224.48 180.788 243.606C175.824 248.603 171.279 253.699 167.269 258.996C151.459 279.891 140.141 304.552 133.632 330.885C132.508 335.396 131.516 339.987 130.612 344.642C127.386 361.247 125.248 378.658 122.236 396.063C120.448 406.427 118.996 417.279 114.373 426.428C111.506 432.111 107.416 436.849 101.763 440.611C96.2583 444.274 90.5106 446.72 84.5419 449.585C64.0341 459.429 42.3858 477.16 34.2126 499.803M563.615 -263.7C567.906 -220.9 562.777 -174.499 545.316 -132.356C537.146 -112.637 524.975 -96.424 515.241 -77.7092C504.096 -56.2877 489.504 -37.1622 473.442 -19.1046C462.45 -6.73608 450.731 5.1202 438.845 16.8204C415.411 39.8878 391.352 62.4885 367.643 83.2067C353.782 95.3189 340.183 106.887 326.947 117.891C317.393 125.835 307.78 133.789 297.972 141.568C283.974 152.671 269.336 163.346 254.82 175.891C249.725 180.296 244.697 184.917 239.669 189.611C218.27 209.447 193.077 227.733 174.4 247.764C169.529 252.987 165.087 258.314 161.175 263.839C145.792 285.559 135.056 310.939 129.149 337.837C128.129 342.445 127.241 347.131 126.436 351.876C123.565 368.809 121.737 386.518 118.815 404.175C117.08 414.691 115.566 425.648 110.907 434.971C108.016 440.766 103.915 445.63 98.3206 449.561C92.8296 453.418 87.0853 456.115 81.1022 459.184C60.5605 469.725 38.6955 487.528 30.0942 510.366M562.941 -261.814C568.157 -219.398 563.614 -173.078 546.2 -131.196C537.948 -111.126 525.393 -94.8232 515.655 -75.7153C504.541 -53.9062 489.975 -34.3373 473.856 -15.8914C462.824 -3.25704 451.025 8.84107 438.997 20.724C415.286 44.1443 390.705 66.8491 366.252 87.4117C351.955 99.4336 337.847 110.825 324.046 121.595C314.067 129.382 304.019 137.132 293.783 144.687C279.158 155.484 263.901 165.815 248.901 178.26C243.642 182.624 238.469 187.232 233.322 191.942C211.386 211.871 186.358 230.989 168.006 251.928C163.231 257.378 158.889 262.935 155.074 268.684C140.117 291.23 129.966 317.328 124.66 344.791C123.744 349.494 122.958 354.275 122.252 359.113C119.737 376.373 118.216 394.382 115.385 412.288C113.703 422.956 112.125 434.02 107.432 443.515C104.518 449.418 100.406 454.411 94.8701 458.509C89.3941 462.561 83.645 465.495 77.6544 468.782C57.0554 479.978 34.9999 497.894 25.9649 520.925M562.266 -259.927C568.411 -217.895 564.369 -171.692 547.086 -130.036C538.715 -109.635 525.816 -93.2236 516.074 -73.72C504.988 -51.5246 490.448 -31.511 474.275 -12.6753C463.204 0.227647 451.324 12.5675 439.154 24.6289C415.167 48.4009 390.064 71.2127 364.865 91.621C350.133 103.553 335.514 114.766 321.152 125.302C310.749 132.933 300.263 140.475 289.598 147.808C274.345 158.296 258.47 168.288 242.985 180.631C237.564 184.952 232.248 189.547 226.98 194.273C204.505 214.298 179.641 234.245 161.617 256.09C156.935 261.766 152.696 267.551 148.978 273.528C134.443 296.9 124.881 323.715 120.176 351.745C119.363 356.545 118.681 361.418 118.074 366.347C115.913 383.935 114.703 402.242 111.961 420.399C110.332 431.221 108.69 442.389 103.963 452.058C101.025 458.072 96.9044 463.194 91.4265 467.458C85.9669 471.707 80.2171 474.887 74.2122 478.379C53.5792 490.272 31.3085 508.261 21.8425 531.487M561.595 -258.04C568.665 -216.393 565.125 -170.307 547.973 -128.877C539.482 -108.143 526.237 -91.6256 516.493 -71.7277C505.436 -49.1459 490.923 -28.6862 474.694 -9.46363C463.58 3.70657 451.623 16.2883 439.313 28.5297C415.047 52.6546 389.422 75.5705 363.481 95.8246C348.312 107.666 333.185 118.7 318.26 129.004C307.432 136.478 296.51 143.815 285.416 150.923C269.534 161.101 253.044 170.754 237.074 182.997C231.488 187.278 226.029 191.859 220.641 196.6C197.627 216.721 172.926 237.498 155.23 260.25C150.641 266.149 146.503 272.167 142.884 278.371C128.767 302.566 119.798 330.101 115.693 358.695C114.983 363.59 114.405 368.558 113.898 373.579C112.093 391.494 111.192 410.102 108.54 428.506C106.964 439.479 105.259 450.754 100.496 460.596C97.5357 466.721 93.408 471.971 87.9844 476.403C82.5426 480.85 76.7919 484.277 70.7727 487.973C50.103 500.562 27.6198 518.622 17.7243 542.043M560.921 -256.154C568.917 -214.892 565.878 -168.922 548.856 -127.717C540.244 -106.651 526.652 -90.0251 516.908 -69.7313C505.879 -46.7633 491.393 -25.8574 475.107 -6.24782C463.954 7.191 451.918 20.0131 439.464 32.4344C414.922 56.9108 388.775 79.9337 362.086 100.032C346.484 111.784 330.844 122.638 315.358 132.709C304.106 140.025 292.746 147.157 281.225 154.044C264.715 163.913 247.608 173.228 231.152 185.368C225.404 189.607 219.8 194.175 214.294 198.931C190.743 219.146 166.202 240.753 148.836 264.414C144.34 270.54 140.304 276.786 136.782 283.217C123.083 308.237 114.705 336.492 111.204 365.652C110.599 370.643 110.122 375.706 109.715 380.817C108.267 399.062 107.673 417.968 105.112 436.621C103.589 447.747 101.822 459.127 97.0238 469.144C94.0401 475.381 89.9043 480.761 84.5378 485.357C79.1124 490.004 73.361 493.674 67.3289 497.577C46.6252 510.863 23.9267 528.996 13.5989 552.61M560.248 -254.269C569.17 -213.389 566.632 -167.536 549.742 -126.559C541.01 -105.16 527.071 -88.4286 517.325 -67.7405C506.324 -44.3848 491.865 -23.0341 475.524 -3.03765C464.329 10.6684 452.216 23.7323 439.621 36.3336C414.801 61.163 388.132 84.29 360.701 104.234C344.662 115.895 328.513 126.57 312.465 136.409C300.788 143.567 288.992 150.492 277.041 157.158C259.902 166.717 242.179 175.694 225.237 187.732C219.326 191.933 213.578 196.484 207.951 201.257C183.861 221.568 159.48 244.004 142.445 268.572C138.042 274.922 134.107 281.4 130.686 288.058C117.404 313.904 109.62 342.876 106.718 372.602C106.215 377.688 105.844 382.844 105.536 388.049C104.441 406.623 104.158 425.826 101.687 444.731C100.218 456.008 98.3844 467.495 93.553 477.686C90.546 484.034 86.4035 489.545 81.0914 494.303C75.6851 499.149 69.9315 503.065 63.8837 507.171C43.1446 521.155 20.2338 539.359 9.47506 563.167M559.575 -252.38C569.423 -211.885 567.386 -166.15 550.628 -125.396C541.774 -103.665 527.489 -86.8279 517.744 -65.7426C506.77 -42.002 492.34 -20.2036 475.943 0.181161C464.71 14.1544 452.515 27.4615 439.778 40.2412C414.682 65.4222 387.489 88.6547 359.314 108.446C342.841 120.017 326.179 130.511 309.568 140.12C297.468 147.12 285.235 153.839 272.855 160.283C255.089 169.529 236.748 178.172 219.32 190.107C213.246 194.266 207.354 198.805 201.608 203.592C176.98 223.997 152.757 247.262 136.054 272.739C131.743 279.316 127.908 286.025 124.587 292.908C111.718 319.577 104.532 349.269 102.231 379.561C101.832 384.745 101.564 389.993 101.356 395.29C100.617 414.192 100.642 433.695 98.26 452.848C96.8447 464.278 94.9486 475.87 90.0809 486.235C87.0506 492.691 82.9028 498.334 77.6435 503.259C72.2578 508.303 66.4994 512.464 60.44 516.775C39.6656 531.457 16.5409 549.733 5.34984 573.733M558.901 -250.494C569.675 -210.384 568.141 -164.763 551.513 -124.237C542.54 -102.174 527.907 -85.23 518.16 -63.7503C507.211 -39.6235 492.812 -17.3803 476.358 3.39281C465.083 17.6333 452.81 31.1807 439.932 44.1432C414.558 69.6771 386.846 93.0139 357.924 112.65C341.014 124.13 323.842 134.442 306.671 143.821C294.145 150.661 281.475 157.177 268.668 163.4C250.273 172.335 231.318 180.643 213.403 192.473C207.167 196.593 201.13 201.118 195.265 205.921C170.098 226.421 146.032 250.513 129.664 276.899C125.445 283.701 121.711 290.639 118.489 297.75C106.033 325.244 99.4451 355.655 97.7474 386.512C97.4519 391.79 97.2854 397.135 97.1785 402.523C96.7947 421.753 97.1279 441.554 94.8375 460.959C93.4753 472.54 91.5155 484.239 86.6128 494.777C83.5593 501.345 79.4075 507.118 74.2012 512.207C68.836 517.452 63.074 521.857 56.9989 526.371C36.1906 541.749 12.8492 560.097 1.23007 584.292M558.228 -248.608C569.929 -208.882 568.895 -163.38 552.397 -123.079C543.304 -100.683 528.281 -83.6519 518.576 -61.7579C507.608 -37.2662 493.283 -14.5569 476.773 6.60456C465.459 21.1137 453.107 34.9016 440.086 48.0426C414.436 73.9281 386.201 97.3703 356.534 116.853C339.19 128.244 321.507 138.373 303.773 147.522C290.823 154.203 277.716 160.515 264.481 166.514C245.459 175.138 225.91 183.148 207.484 194.838C201.092 198.928 194.906 203.427 188.92 208.246C163.217 228.841 139.306 253.763 123.273 281.058C119.145 288.085 115.514 295.254 112.391 302.592C100.347 330.909 94.3558 362.04 93.2594 393.462C93.0662 398.836 93.0062 404.274 92.996 409.755C92.9675 429.313 93.6116 449.414 91.4096 469.069C90.1004 480.803 88.077 492.606 83.1394 503.318C80.0626 509.998 75.9069 515.902 70.7535 521.154C65.4088 526.6 59.6433 531.249 53.5539 535.968C32.7102 552.044 9.15642 570.462 -2.89507 594.853M557.555 -246.72C570.181 -207.377 569.65 -161.993 553.283 -121.918C544.07 -99.1893 528.703 -82.0497 518.995 -59.7628C508.057 -34.8833 493.757 -11.7292 477.191 9.81916C465.835 24.5955 453.406 38.6252 440.243 51.9475C414.316 78.186 385.56 101.734 355.148 121.061C337.367 132.362 319.176 142.308 300.88 151.228C287.504 157.749 273.951 163.831 260.296 169.634C240.633 177.911 220.477 185.619 201.57 197.207C195.016 201.256 188.684 205.742 182.578 210.576C156.336 231.267 132.582 257.017 116.883 285.221C112.847 292.472 109.315 299.872 106.296 307.437C94.6616 336.579 89.2719 368.429 88.7768 400.418C88.6873 405.888 88.7296 411.42 88.8204 416.992C89.1472 436.878 90.0995 457.279 87.9873 477.182C86.7311 489.068 84.6455 500.976 79.6715 511.863C76.5714 518.654 72.4117 524.689 67.3085 530.105C61.9872 535.751 56.214 540.643 50.1116 545.567C29.234 562.34 5.46355 580.831 -7.01886 605.415M556.882 -244.835C570.434 -205.877 570.405 -160.609 554.171 -120.759C544.836 -97.6986 529.126 -80.4504 519.414 -57.7706C508.507 -32.502 494.231 -8.90453 477.61 13.0322C466.216 28.0757 453.705 42.3487 440.4 55.8495C414.195 82.4409 384.917 106.093 353.761 125.267C335.546 136.478 316.842 146.24 297.984 154.933C284.184 161.293 270.196 167.173 256.11 172.756C235.82 180.723 215.045 188.091 195.653 199.579C188.934 203.587 182.46 208.06 176.235 212.908C149.455 233.693 125.853 260.272 110.492 289.384C106.547 296.862 103.115 304.492 100.197 312.284C88.9706 342.251 84.1838 374.819 84.2886 407.373C84.3027 412.938 84.4474 418.565 84.639 424.229C85.3212 444.442 86.5816 465.143 84.562 485.295C83.3588 497.333 81.2096 509.348 76.2006 520.408C73.0773 527.309 68.9151 533.477 63.8634 539.055C58.5668 544.904 52.7859 550.038 46.6678 555.166C25.7548 572.636 1.77193 591.197 -11.1414 615.976M556.208 -242.949C570.687 -204.374 571.158 -159.224 555.054 -119.599C545.599 -96.205 529.543 -78.8497 519.829 -55.7754C508.953 -30.1192 494.702 -6.07701 478.025 16.2467C466.591 31.5588 454.001 46.0721 440.555 59.7529C414.074 86.6958 384.272 110.453 352.372 129.472C333.721 140.592 314.509 150.172 295.087 158.635C280.863 164.836 266.441 170.514 251.925 175.871C231.009 183.529 209.612 190.559 189.739 201.945C182.857 205.911 176.238 210.372 169.893 215.236C142.575 236.116 119.127 263.525 104.104 293.543C100.249 301.247 96.9176 309.107 94.1008 317.125C83.2812 347.917 79.0985 381.203 79.8045 414.324C79.9224 419.986 80.1707 425.705 80.4619 431.461C81.5007 452.004 83.0693 473.001 81.1395 493.405C79.9894 505.596 77.7765 517.715 72.7326 528.949C69.5859 535.96 65.424 542.263 60.421 548.003C55.1478 554.052 49.3592 559.429 43.2282 564.763C22.2798 582.931 -1.91692 601.564 -15.2626 626.536M555.535 -241.061C570.94 -202.871 571.914 -157.836 555.94 -118.439C546.363 -94.7127 529.964 -77.249 520.247 -53.7818C509.4 -27.7379 495.175 -3.25085 478.441 19.4611C466.965 35.0405 454.298 49.7957 440.709 63.6578C413.949 90.9523 383.628 114.817 350.983 133.681C331.897 144.711 312.16 154.074 292.191 162.344C277.534 168.359 262.686 173.86 247.737 178.994C226.196 186.344 204.178 193.031 183.82 204.319C176.775 208.244 170.013 212.689 163.549 217.569C135.693 238.544 112.341 266.756 97.7125 297.71C93.9336 305.632 90.7176 313.73 88.0019 321.974C77.589 353.594 74.009 387.597 75.3178 421.281C75.5379 427.038 75.8913 432.853 76.2807 438.701C77.6748 459.571 79.5515 480.868 77.7116 501.521C76.613 513.863 74.3379 526.09 69.259 537.497C66.0891 544.618 61.926 551.053 56.9718 556.957C51.7261 563.209 45.927 568.828 39.7817 574.367C18.7994 593.232 -5.61262 611.935 -19.3878 637.102M554.862 -239.175C571.192 -201.369 572.667 -156.451 556.824 -117.28C547.13 -93.2218 530.385 -75.6481 520.664 -51.788C509.848 -25.3564 495.647 -0.425983 478.857 22.6743C467.342 38.5223 454.596 53.5179 440.863 67.56C413.827 95.206 382.982 119.176 349.593 137.888C330.072 148.826 309.829 158.012 289.294 166.048C274.214 171.906 258.929 177.201 243.552 182.113C221.386 189.154 198.745 195.502 177.903 206.688C170.694 210.57 163.789 215.004 157.206 219.898C128.811 240.969 105.622 270.015 91.3215 301.871C87.6367 310.021 84.5024 318.343 81.9046 326.817C71.8316 359.243 68.9225 393.983 70.8326 428.234C71.1578 434.087 71.6121 439.995 72.101 445.934C73.8504 467.132 76.0381 488.728 74.2865 509.631C73.241 522.125 70.9037 534.458 65.7884 546.039C62.5953 553.272 58.4324 559.838 53.5256 565.904C48.306 572.356 42.4964 578.217 36.3381 583.96C15.3205 603.522 -9.30534 622.298 -23.5115 647.659M554.188 -237.288C571.445 -199.866 573.42 -155.066 557.709 -116.121C547.893 -91.7307 530.805 -74.0486 521.079 -49.794C510.294 -22.9734 496.118 2.399 479.271 25.8876C467.715 42.0014 454.888 57.2401 441.017 71.4621C413.704 99.4612 382.337 123.535 348.203 142.092C328.247 152.941 307.497 161.948 286.396 169.749C270.896 175.452 255.172 180.542 239.363 185.229C216.572 191.962 193.311 197.969 171.985 209.053C164.611 212.895 157.563 217.315 150.86 222.225C121.928 243.389 98.9014 273.274 84.9276 306.03C81.3357 314.406 78.3024 322.96 75.8044 331.66C66.1562 364.92 63.8318 400.367 66.3431 435.185C66.7706 441.134 67.33 447.135 67.9185 453.166C70.0232 474.692 72.519 496.588 70.8586 517.741C69.8662 530.388 67.4638 542.826 62.315 554.581C59.0985 561.925 54.9373 568.622 50.0778 574.851C44.8857 581.506 39.0657 587.61 32.8931 593.557C11.8401 613.815 -12.9982 632.664 -27.6366 658.218M553.516 -235.402C571.699 -198.364 574.177 -153.68 558.596 -114.96C548.66 -90.2358 531.227 -72.4466 521.498 -47.7991C510.743 -20.5908 496.593 5.2264 479.69 29.1034C468.095 45.4858 455.189 60.9649 441.174 75.3669C413.584 103.717 381.697 127.897 346.816 146.301C326.424 157.058 305.167 165.889 283.5 173.457C267.577 179.003 251.416 183.887 235.176 188.351C211.76 194.775 187.875 200.442 166.066 211.426C158.53 215.226 151.34 219.634 144.515 224.558C115.045 245.818 92.1821 276.539 78.5363 310.197C75.0385 318.801 72.1078 327.586 69.7054 336.509C60.4804 370.605 58.7435 406.76 61.8561 442.144C62.3859 448.189 63.0491 454.285 63.7384 460.407C66.1984 482.261 69.0024 504.456 67.4319 525.858C66.4924 538.657 64.0278 551.201 58.8426 563.129C55.6029 570.585 51.4558 577.423 46.6298 583.807C41.4776 590.674 35.6333 597.009 29.4478 603.162C8.35942 624.118 -16.6927 643.039 -31.7621 668.787M552.842 -233.515C571.951 -196.862 574.93 -152.295 559.481 -113.801C549.423 -88.7449 531.648 -70.8486 521.915 -45.8054C511.19 -18.2093 497.066 8.05265 480.107 32.3165C445.564 81.7405 399.15 122.986 345.427 150.506C309.29 169.017 270.34 181.458 230.991 191.467C206.949 197.583 182.443 202.909 160.151 213.791C119.169 233.797 88.5486 271.801 72.1466 314.354C55.7447 356.907 52.6842 403.729 57.3723 449.093C61.6246 490.26 71.7649 533.667 55.3748 571.668C36.6293 615.129 -11.6072 638.71 -35.883 679.341M662.746 8.86962C628.066 -27.1093 580.453 -50.3534 530.755 -55.5643C516.616 -57.0464 501.781 -57.0072 488.867 -51.0619C451.555 -33.8809 443.41 16.7197 432.32 51.8032C418.936 94.14 406.568 136.879 389.753 178.03C380.314 201.133 366.975 225.976 343.134 233.357C318.991 240.829 293.978 227.566 270.88 217.309C243.967 205.355 214.848 196.978 185.426 198.237C156.004 199.497 126.192 211.336 107.563 234.144C92.9746 252.006 86.2287 274.943 81.7084 297.558C69.8335 356.98 71.068 418.984 85.2985 477.887M662.126 6.45029C631.476 -25.3489 590.1 -45.2887 544.47 -52.4221C540.232 -53.0848 535.981 -53.6542 531.713 -54.0775C517.689 -55.4624 503.011 -55.3926 490.206 -49.6066C453.162 -32.8846 444.353 16.141 432.861 50.7514C422.674 81.4362 413.209 112.566 401.985 143.355C398.105 154.05 394.035 164.679 389.683 175.209C380.241 198.048 367.051 222.588 343.703 230.233C320.061 237.973 295.581 225.65 272.946 216.228C246.57 205.252 218.048 197.726 189.189 199.499C179.141 200.116 169.042 201.972 159.363 205.082C141.248 210.897 124.597 221.098 112.514 235.775C97.9986 253.404 91.0309 275.899 86.1833 298.006C76.3569 342.752 73.9466 388.675 79.0912 433.792C80.6252 447.255 82.8315 460.643 85.7205 473.905M661.506 4.03389C631.878 -26.7056 591.59 -44.3573 545.309 -51.0365C541.109 -51.6417 536.899 -52.1913 532.673 -52.5863C518.763 -53.8713 504.243 -53.7737 491.544 -48.147C454.764 -31.8839 445.297 15.5639 433.404 49.7039C422.957 79.6938 413.381 110.355 401.96 140.92C398.052 151.48 393.967 161.983 389.614 172.391C380.172 194.969 367.128 219.205 344.274 227.113C321.131 235.12 297.185 223.737 275.016 215.151C249.179 205.151 221.249 198.478 192.956 200.765C183.104 201.563 173.197 203.554 163.691 206.753C145.902 212.729 129.493 222.925 117.47 237.408C103.03 254.807 95.8403 276.856 90.6627 298.457C80.1539 342.181 76.7062 386.731 80.6398 430.731C81.8129 443.861 83.6415 456.938 86.1468 469.924M660.886 1.61486C632.279 -28.0635 593.087 -43.4355 546.149 -49.6536C541.984 -50.2056 537.817 -50.7338 533.634 -51.0992C519.84 -52.287 505.476 -52.1559 492.886 -46.6913C456.373 -30.8872 446.251 14.9801 433.949 48.6524C423.247 77.9447 413.486 108.111 401.94 138.481C397.98 148.899 393.903 159.283 389.548 169.572C380.104 191.886 367.208 215.819 344.849 223.99C322.206 232.262 298.795 221.821 277.088 214.071C251.789 205.048 224.455 199.227 196.726 202.026C187.069 203.005 177.354 205.131 168.02 208.417C150.556 214.554 134.391 224.743 122.429 239.037C108.063 256.205 100.651 277.81 95.1435 298.903C83.9524 341.61 79.4674 384.784 82.1912 427.668C83.0036 440.464 84.4558 453.228 86.5789 465.941M660.266 -0.801601C632.681 -29.4203 594.588 -42.5208 546.987 -48.2667C542.859 -48.764 538.733 -49.2711 534.592 -49.6068C520.912 -50.6947 506.706 -50.5357 494.223 -45.2319C457.978 -29.8867 447.207 14.4002 434.49 47.6062C423.539 76.2009 413.635 105.892 401.914 136.048C397.919 146.328 393.834 156.587 389.478 166.756C380.033 188.808 367.286 212.437 345.418 220.871C323.276 229.412 300.399 219.91 279.154 212.996C254.393 204.951 227.654 199.979 200.488 203.293C191.027 204.451 181.505 206.712 172.342 210.088C155.206 216.387 139.283 226.569 127.378 240.672C113.084 257.609 105.452 278.77 99.6157 299.354C87.7422 341.041 82.2198 382.841 83.7312 424.61C84.1813 437.074 85.2572 449.525 86.9966 461.963M659.645 -3.21911C633.082 -30.7781 596.093 -41.6142 547.825 -46.8823C543.734 -47.3277 539.65 -47.8093 535.552 -48.1182C521.987 -49.1089 507.937 -48.9179 495.563 -43.7734C459.585 -28.8872 448.169 13.8166 435.033 46.5591C423.84 74.4576 413.79 103.671 401.892 133.613C397.862 143.757 393.769 153.892 389.412 163.939C379.966 185.728 367.366 209.054 345.992 217.752C324.349 226.559 302.009 217.997 281.225 211.921C257.001 204.85 230.858 200.732 204.257 204.561C194.992 205.899 185.662 208.296 176.671 211.76C159.86 218.219 144.178 228.396 132.337 242.307C118.117 259.013 110.264 279.731 104.098 299.807C91.5436 340.475 84.9824 380.901 85.2841 421.553C85.3734 433.684 86.0716 445.824 87.4274 457.987M659.025 -5.63841C633.484 -32.1377 597.602 -40.7218 548.663 -45.501C544.611 -45.8959 540.566 -46.3535 536.511 -46.6314C523.062 -47.5235 509.167 -47.3033 496.9 -42.3195C461.188 -27.8909 449.136 13.2256 435.573 45.5059C424.145 72.7069 413.94 101.445 401.864 131.172C397.8 141.179 393.697 151.19 389.339 161.115C379.892 182.642 367.44 205.663 346.558 214.625C325.415 223.699 303.61 216.078 283.288 210.838C259.602 204.744 234.055 201.478 208.017 205.82C198.948 207.338 189.81 209.869 180.991 213.424C164.506 220.044 149.068 230.214 137.285 243.934C123.14 260.41 115.064 280.684 108.569 300.252C95.3321 339.899 87.7335 378.951 86.8242 418.487C86.5512 430.285 86.8731 442.113 87.8466 453.999M658.405 -8.05472C633.885 -33.493 599.116 -39.8334 549.501 -44.114C545.486 -44.4598 541.482 -44.8905 537.47 -45.1401C524.135 -45.9337 510.397 -45.6829 498.239 -40.8584C462.794 -26.8901 450.111 12.6433 436.118 44.4599C424.46 70.9636 414.099 99.2248 401.842 128.74C397.744 138.612 393.63 148.496 389.273 158.301C379.824 179.564 367.52 202.283 347.132 211.509C326.489 220.85 305.217 214.167 285.36 209.763C262.214 204.646 237.261 202.232 211.788 207.088C202.914 208.785 193.969 211.452 185.322 215.095C169.163 221.876 153.969 232.041 142.245 245.571C128.172 261.814 119.876 281.644 113.05 300.706C99.1319 339.334 90.4945 377.012 88.3741 415.433C87.7403 426.898 87.6845 438.415 88.2744 450.026M657.785 -10.474C634.287 -34.8525 600.635 -38.9604 550.34 -42.7313C546.364 -43.0294 542.401 -43.4319 538.43 -43.6519C525.211 -44.3469 511.63 -44.0655 499.58 -39.4017C464.401 -25.8923 451.094 12.0524 436.66 43.4095C424.782 69.2159 414.255 97.0018 401.819 126.301C397.687 136.034 393.563 145.795 389.204 155.481C379.755 176.482 367.598 198.895 347.704 208.388C327.56 217.995 306.823 212.254 287.429 208.686C264.82 204.546 240.463 202.984 215.554 208.353C206.876 210.229 198.124 213.031 189.647 216.763C173.815 223.706 158.862 233.863 147.198 247.204C133.201 263.217 124.682 282.602 117.527 301.158C102.927 338.765 93.2525 375.069 89.9211 412.373C88.9251 423.507 88.4915 434.709 88.7005 446.048M657.163 -12.8917C634.687 -36.2106 602.153 -38.0956 551.178 -41.3471C547.241 -41.5974 543.317 -41.9718 539.39 -42.1635C526.284 -42.7601 512.861 -42.4479 500.919 -37.9462C466.006 -24.8945 452.082 11.4632 437.203 42.3593C425.111 67.4698 414.415 94.7804 401.796 123.865C397.631 133.464 393.496 143.098 389.137 152.662C379.686 173.4 367.676 195.511 348.276 205.267C328.632 215.141 308.43 210.341 289.498 207.608C267.427 204.446 243.666 203.736 219.321 209.619C210.839 211.676 202.278 214.613 193.974 218.432C178.466 225.537 163.757 235.689 152.154 248.836C138.229 264.617 129.489 283.559 122.005 301.606C106.724 338.195 96.0107 373.124 91.4696 409.313C90.1128 420.112 89.3015 431.003 89.1283 442.066M656.545 -15.3093C635.091 -37.5684 603.679 -37.2404 552.016 -39.9627C548.118 -40.1681 544.234 -40.5129 540.347 -40.675C527.357 -41.1729 514.09 -40.8316 502.255 -36.4878C467.61 -23.895 453.075 10.8742 437.742 41.3106C425.442 65.7267 414.572 92.5591 401.767 121.429C397.57 130.891 393.424 140.401 389.064 149.844C379.612 170.32 367.751 192.125 348.843 202.146C329.698 212.286 310.032 208.427 291.562 206.531C270.03 204.345 246.863 204.487 223.081 210.884C214.795 213.119 206.424 216.192 198.293 220.101C183.112 227.366 168.646 237.512 157.102 250.469C143.251 266.021 134.29 284.517 126.476 302.057C110.513 337.625 98.7608 371.179 93.0085 406.253C91.2909 416.72 90.1018 427.299 89.545 438.087M655.924 -17.7272C635.491 -38.9267 605.203 -36.3981 552.854 -38.5787C548.994 -38.7392 545.15 -39.0515 541.307 -39.1867C528.43 -39.5861 515.32 -39.2141 503.594 -35.0325C469.217 -22.8986 454.08 10.2849 438.285 40.2602C425.786 63.9819 414.734 90.3362 401.745 118.991C397.517 128.318 393.358 137.702 388.998 147.024C379.545 167.237 367.832 188.741 349.418 199.022C330.774 209.43 311.641 206.508 293.635 205.452C272.64 204.242 250.07 205.237 226.852 212.146C218.762 214.561 210.584 217.768 202.625 221.768C187.77 229.193 173.546 239.333 162.062 252.1C148.285 267.421 139.101 285.473 130.96 302.505C114.316 337.054 101.524 369.234 94.5611 403.191C92.4812 413.325 90.9158 423.592 89.9768 434.103M655.304 -20.1434C635.892 -40.2818 606.73 -35.5665 553.694 -37.1929C549.874 -37.3098 546.067 -37.5981 542.267 -37.6954C529.507 -38.0213 516.554 -37.5936 504.935 -33.5727C470.823 -21.8992 455.091 9.70024 438.831 39.213C426.14 62.2445 414.901 88.1192 401.723 116.556C397.465 125.748 393.292 135.004 388.93 144.207C379.475 164.158 367.91 185.357 349.988 195.903C331.844 206.577 313.247 204.596 295.704 204.375C275.247 204.142 253.273 205.988 230.619 213.412C222.726 216.008 214.739 219.35 206.952 223.437C192.423 231.026 178.442 241.159 167.019 253.733C153.315 268.822 143.91 286.43 135.439 302.956C118.113 336.484 104.284 367.29 96.1112 400.132C93.6705 409.933 91.7273 419.888 90.4061 430.126M654.684 -22.5626C636.294 -41.6413 608.259 -34.7506 554.532 -35.8088C550.75 -35.8836 546.985 -36.138 543.226 -36.207C530.581 -36.4358 517.784 -35.9761 506.272 -32.1159C472.427 -20.8999 456.111 9.11537 439.371 38.1626C426.497 60.5042 415.062 85.8991 401.698 114.119C397.41 123.173 393.224 132.305 388.861 141.387C379.405 161.074 367.987 181.971 350.559 192.781C332.914 203.721 314.852 202.682 297.772 203.296C277.854 204.04 256.475 206.738 234.384 214.675C226.683 217.451 218.892 220.927 211.274 225.106C197.071 232.854 183.333 242.982 171.968 255.365C158.339 270.223 148.713 287.386 139.912 303.404C121.904 335.914 107.037 365.345 97.6513 397.071C94.8483 406.54 92.5288 416.183 90.824 426.145M654.062 -24.9805C636.695 -42.9995 609.787 -33.9458 555.37 -34.4247C551.627 -34.4574 547.901 -34.678 544.184 -34.7174C531.654 -34.849 519.014 -34.3586 507.611 -30.6577C474.033 -19.9007 457.138 8.53339 439.914 37.1151C426.863 58.7709 415.231 83.6804 401.673 111.684C397.355 120.603 393.155 129.609 388.792 138.57C379.335 157.995 368.065 178.586 351.13 189.661C333.985 200.869 316.457 200.77 299.84 202.22C280.459 203.941 259.675 207.492 238.149 215.943C230.645 218.899 223.045 222.51 215.599 226.777C201.722 234.685 188.226 244.807 176.922 257.001C163.367 271.628 153.518 288.348 144.388 303.86C125.698 335.349 109.793 363.407 99.1982 394.017C96.0345 403.152 93.3373 412.484 91.2501 422.17M653.444 -27.3982C637.098 -44.3575 611.319 -33.1548 556.209 -33.0419C552.506 -33.0338 548.819 -33.2207 545.145 -33.2304C532.73 -33.2649 520.246 -32.7425 508.95 -29.2023C475.64 -18.9043 458.178 7.95152 440.455 36.0635C427.235 57.0348 415.398 81.4605 401.648 109.246C397.3 118.031 393.087 126.911 388.723 135.75C379.265 154.912 368.142 175.2 351.7 186.539C335.055 198.014 318.061 198.853 301.908 201.142C283.066 203.838 262.876 208.241 241.915 217.205C234.607 220.341 227.199 224.086 219.926 228.443C206.374 236.514 193.121 246.63 181.879 258.632C168.397 273.027 158.327 289.303 148.867 304.307C129.496 334.777 112.553 361.46 100.747 390.953C97.2194 399.755 94.1458 408.774 91.6765 418.186M652.822 -29.8159C637.497 -45.7141 612.848 -32.3776 557.046 -31.6562C553.382 -31.6087 549.733 -31.759 546.102 -31.7391C533.802 -31.6736 521.482 -31.0996 510.288 -27.7425C477.264 -17.8364 459.224 7.3796 440.997 35.0175C427.615 55.3102 415.568 79.2462 401.624 106.811C397.248 115.461 393.018 124.215 388.654 132.933C379.195 151.833 368.22 171.816 352.271 183.42C336.124 195.162 319.667 196.942 303.977 200.064C285.673 203.738 266.079 208.993 245.682 218.471C238.569 221.786 231.354 225.668 224.252 230.113C211.028 238.345 198.017 248.454 186.833 260.265C173.424 274.431 163.132 290.262 153.344 304.758C133.291 334.207 115.31 359.517 102.292 387.895C98.4043 396.364 94.953 405.072 92.1014 414.21M652.204 -32.2335C637.901 -47.072 614.379 -31.6131 557.887 -30.272C554.261 -30.1851 550.653 -30.2974 547.065 -30.2507C534.879 -30.088 522.716 -29.4834 511.632 -26.2856C478.873 -16.8398 460.282 6.80916 441.545 33.9674C428.011 53.5842 415.746 77.0292 401.606 104.375C397.203 112.891 392.957 121.518 388.591 130.116C379.13 148.752 368.303 168.433 352.849 180.301C337.203 192.312 321.281 195.03 306.052 198.99C288.286 203.641 269.288 209.747 249.453 219.739C242.537 223.234 235.513 227.251 228.583 231.784C215.685 240.177 202.917 250.281 191.793 261.901C178.457 275.835 167.946 291.224 157.827 305.212C137.093 333.642 118.072 357.579 103.845 384.839C99.5949 392.975 95.7686 401.369 92.5334 410.232M651.582 -34.6512C638.3 -48.4314 615.908 -30.8638 558.723 -28.8863C555.138 -28.7615 551.568 -28.8372 548.022 -28.7594C535.951 -28.4968 523.944 -27.863 512.966 -24.826C480.474 -15.8377 461.345 6.24857 442.083 32.92C428.402 51.8652 415.914 74.8163 401.577 101.939C397.148 110.321 392.883 118.819 388.518 127.297C379.057 145.672 368.379 165.049 353.416 177.181C338.269 189.457 322.882 193.116 308.115 197.913C290.887 203.539 272.484 210.497 253.213 221.004C246.493 224.679 239.662 228.83 232.903 233.453C220.329 242.007 207.804 252.104 196.74 263.533C183.478 277.236 172.745 292.18 162.297 305.661C140.881 333.07 120.821 355.632 105.386 381.778C100.774 389.581 96.5704 397.664 92.9515 406.252M650.962 -37.0704C638.702 -49.7909 617.434 -30.1314 559.561 -27.5049C556.014 -27.3435 552.485 -27.3785 548.982 -27.2739C537.026 -26.9141 525.176 -26.2496 514.307 -23.3719C482.08 -14.844 462.421 5.68789 442.627 31.8683C428.806 50.1476 416.094 72.6005 401.555 99.5013C397.099 107.749 392.817 116.121 388.451 124.476C378.988 142.587 368.457 161.662 353.988 174.057C339.34 186.6 324.487 191.199 310.184 196.832C293.494 203.436 275.687 211.245 256.982 222.266C250.457 226.119 243.818 230.408 237.232 235.119C224.984 243.834 212.702 253.925 201.699 265.164C188.512 278.636 177.556 293.136 166.779 306.108C144.682 332.499 123.583 353.686 106.935 378.716C101.963 386.185 97.3816 393.957 93.3791 402.269M650.342 -39.4867C639.103 -51.1462 618.961 -29.413 560.401 -26.1194C556.893 -25.9214 553.402 -25.917 549.942 -25.7828C538.1 -25.323 526.406 -24.6293 515.646 -21.9137C483.684 -13.8448 463.508 5.13986 443.168 30.8194C429.214 48.4369 416.271 70.3876 401.529 97.0651C397.046 105.179 392.749 113.422 388.38 121.658C378.917 139.507 368.532 158.277 354.558 170.935C340.412 183.745 326.093 189.284 312.252 195.754C296.099 203.335 278.887 211.996 260.746 223.529C254.417 227.563 247.971 231.986 241.556 236.786C229.636 245.663 217.596 255.748 206.65 266.794C193.537 280.035 182.36 294.091 171.254 306.557C148.475 331.927 126.338 351.74 108.48 375.654C103.145 382.791 98.1874 390.25 93.8027 398.286M649.721 -41.9047C639.504 -52.5044 620.484 -28.7101 561.237 -24.734C557.768 -24.5022 554.317 -24.457 550.9 -24.2931C539.173 -23.7335 527.632 -23.0328 516.984 -20.4542C485.273 -12.9085 464.602 4.60299 443.71 29.7733C429.629 46.736 416.45 68.1774 401.506 94.6315C396.997 102.612 392.682 110.727 388.313 118.842C378.847 136.427 368.612 154.894 355.13 167.816C341.483 180.893 327.699 187.373 314.322 194.678C298.709 203.235 282.091 212.749 264.514 224.797C258.382 229.01 252.126 233.569 245.884 238.457C234.288 247.495 222.492 257.573 211.607 268.43C198.566 281.441 187.168 295.052 175.732 307.011C152.271 331.362 129.096 349.801 110.028 372.598C104.333 379.402 98.9958 386.548 94.2302 394.312M649.102 -44.3223C639.907 -53.8623 622.006 -28.0235 562.078 -23.3496C558.647 -23.0813 555.237 -22.9954 551.861 -22.8032C540.249 -22.1436 528.864 -21.4137 518.324 -18.9972C486.88 -11.9119 465.709 4.07343 444.256 28.7232C430.055 45.0383 416.637 65.9661 401.484 92.194C396.95 100.042 392.616 108.029 388.246 116.023C378.78 133.347 368.69 151.51 355.703 164.696C342.555 178.039 329.306 185.46 316.392 193.6C301.316 203.135 285.294 213.5 268.28 226.061C262.341 230.455 256.28 235.146 250.209 240.126C238.939 249.324 227.385 259.397 216.562 270.062C203.596 282.843 191.976 296.008 180.21 307.46C156.067 330.79 131.855 347.856 111.574 369.538C105.517 376.01 99.8031 382.843 94.6553 390.33M648.481 -46.74C640.308 -55.2203 623.521 -27.3539 562.915 -21.9668C559.523 -21.6647 556.151 -21.5366 552.819 -21.3162C541.322 -20.5567 530.095 -19.799 519.662 -17.5404C488.485 -10.914 466.823 3.5564 444.796 27.6729C430.479 43.3474 416.818 63.7546 401.458 89.7578C396.899 97.4734 392.545 105.33 388.176 113.205C378.708 130.265 368.767 148.124 356.272 161.575C343.625 175.186 330.91 183.544 318.458 192.523C303.92 203.035 288.494 214.251 272.046 227.326C266.303 231.9 260.433 236.727 254.535 241.795C243.591 251.155 232.281 261.222 221.516 271.696C208.623 284.244 196.782 296.966 184.687 307.91C159.863 330.222 134.612 345.912 113.121 366.478C106.703 372.617 100.612 379.139 95.0802 386.351M647.861 -49.1591C640.71 -56.5798 625.036 -26.7038 563.753 -20.5826C560.398 -20.2481 557.067 -20.0695 553.778 -19.8265C542.397 -18.946 531.324 -18.18 521.001 -16.0821C490.09 -9.91327 467.949 3.05203 445.339 26.6255C430.912 41.6649 417.006 61.5503 401.434 87.3216C396.853 94.9047 392.478 102.633 388.108 110.387C378.64 127.185 368.846 144.74 356.844 158.454C344.696 172.331 332.517 181.631 320.527 191.446C306.527 202.932 291.697 215.003 275.811 228.591C270.265 233.345 264.586 238.307 258.861 243.464C248.243 252.985 237.175 263.044 226.47 273.329C213.652 285.647 201.588 297.925 189.164 308.362C163.658 329.653 137.37 343.97 114.668 363.419C107.888 369.225 101.42 375.435 95.5052 382.372M647.241 -51.5756C641.11 -57.9352 626.545 -26.0678 564.592 -19.1971C561.276 -18.8288 557.987 -18.6081 554.738 -18.3382C543.473 -17.3592 532.557 -16.5625 522.34 -14.6268C491.696 -8.91691 469.084 2.56148 445.88 25.5738C431.347 39.9879 417.192 59.3415 401.41 84.8839C396.804 92.3357 392.409 99.9343 388.038 107.565C378.568 124.1 368.924 141.352 357.413 155.33C345.765 169.474 334.121 179.714 322.594 190.366C309.131 202.83 294.897 215.751 279.574 229.853C274.223 234.786 268.738 239.883 263.183 245.129C252.892 254.811 242.066 264.866 231.42 274.958C218.676 287.045 206.39 298.878 193.637 308.808C167.45 329.079 140.122 342.022 116.21 360.357C109.068 365.83 102.223 371.728 95.9272 378.39M646.621 -53.9948C641.512 -59.2947 628.049 -25.4513 565.432 -17.8144C562.153 -17.4137 558.904 -17.1493 555.697 -16.8498C544.546 -15.7723 533.787 -14.9451 523.679 -13.1686C493.303 -7.91769 470.226 2.08779 446.423 24.5263C431.787 38.3235 417.383 57.1398 401.386 82.4475C396.758 89.7696 392.342 97.237 387.969 104.748C378.498 121.021 369.001 137.969 357.985 152.212C346.836 166.622 335.728 177.804 324.664 189.29C311.741 202.73 298.101 216.503 283.342 231.12C278.187 236.233 272.893 241.466 267.511 246.8C257.544 256.644 246.963 266.691 236.378 276.593C223.707 288.448 211.199 299.838 198.117 309.259C171.248 328.51 142.882 340.078 117.759 357.297C110.257 362.437 103.034 368.023 96.3548 374.411M646.001 -56.4111C641.915 -60.6512 629.549 -24.8528 566.27 -16.4273C563.03 -15.9957 559.819 -15.6863 556.657 -15.3585C545.622 -14.1824 535.019 -13.3259 525.018 -11.7102C494.908 -6.91965 471.377 1.63115 446.967 23.4776C432.23 36.6664 417.578 54.9369 401.364 80.0128C396.715 87.2037 392.277 94.5413 387.903 101.931C378.431 117.94 369.082 134.585 358.559 149.093C347.911 163.771 337.335 175.891 326.735 188.214C314.349 202.631 301.304 217.258 287.109 232.387C282.151 237.68 277.049 243.047 271.836 248.471C262.195 258.475 251.857 268.517 241.331 278.227C228.733 289.853 216.004 300.798 202.594 309.712C175.044 327.944 145.639 338.137 119.305 354.239C111.441 359.047 103.842 364.321 96.7785 370.433M645.381 -58.8301C642.317 -62.0106 631.04 -24.2739 567.108 -15.0457C563.904 -14.5831 560.737 -14.229 557.615 -13.8716C546.694 -12.5969 536.248 -11.7097 526.357 -10.2547C496.513 -5.92173 472.535 1.18976 447.509 22.426C432.674 35.0147 417.772 52.734 401.338 77.5738C396.667 84.6349 392.207 91.8385 387.833 99.1099C378.36 114.857 369.157 131.198 359.13 145.968C348.981 160.912 338.94 173.973 328.802 187.132C316.955 202.527 304.506 218.005 290.877 233.647C286.113 239.119 281.204 244.623 276.164 250.137C266.851 260.302 256.753 270.339 246.288 279.858C233.763 291.252 220.814 301.752 207.072 310.161C178.841 327.374 148.397 336.192 120.852 351.18C112.627 355.654 104.649 360.615 97.2048 366.452M644.76 -61.248C642.716 -63.3674 632.525 -23.7134 567.946 -13.6617C564.779 -13.1695 561.653 -12.769 558.575 -12.3833C547.77 -11.0101 537.481 -10.0923 527.695 -8.79797C498.118 -4.92396 473.698 0.767705 448.05 21.377C433.119 33.3753 417.968 50.5379 401.315 75.1375C396.623 82.0688 392.14 89.1412 387.766 96.2913C378.291 111.775 369.237 127.812 359.702 142.847C350.052 158.057 340.547 172.06 330.872 186.055C319.563 202.426 307.709 218.756 294.642 234.912C290.075 240.564 285.358 246.202 280.489 251.805C271.501 262.132 261.647 272.161 251.243 281.49C238.793 292.653 225.62 302.71 211.55 310.61C182.636 326.802 151.155 334.247 122.4 348.117C113.812 352.26 105.457 356.908 97.6311 362.472M644.14 -63.6644C643.118 -64.7241 634.005 -23.1724 568.784 -12.2748C565.653 -11.7516 562.571 -11.306 559.533 -10.8907C548.843 -9.42033 538.71 -8.47048 529.034 -7.33688C499.724 -3.92182 474.867 0.370935 448.592 20.3309C433.562 31.7486 418.196 48.3658 401.289 72.704C396.584 79.5125 392.07 86.4468 387.695 93.4756C378.22 108.698 369.313 124.43 360.271 139.728C351.122 155.207 342.152 170.148 332.938 184.98C322.167 202.329 310.909 219.51 298.406 236.181C294.035 242.013 289.51 247.786 284.813 253.477C276.15 263.965 266.539 273.988 256.194 283.126C243.818 294.058 230.425 303.671 216.025 311.064C186.43 326.238 153.91 332.307 123.945 345.062C114.997 348.871 106.264 353.208 98.0559 358.495M643.52 -66.0835C643.52 -66.0835 635.477 -22.6522 569.623 -10.8919C503.769 0.868451 461.649 -14.8761 401.267 70.2664C359.542 129.103 333.636 198.301 289.141 255.143C270.834 278.529 247.549 298.869 220.504 311.512C190.227 325.665 156.67 330.361 125.492 342C116.182 345.477 107.074 349.5 98.481 354.513" stroke="white" stroke-opacity="0.2" stroke-width="0.197078" stroke-miterlimit="10"/>
</g>
</g>
<defs>
<clipPath id="clip0_228_330">
<rect width="464" height="373" rx="40" fill="white"/>
</clipPath>
</defs>
</svg>
